<mxfile host="app.diagrams.net" modified="2021-04-09T03:29:13.120Z" agent="5.0 (Windows NT 6.1; Win64; x64) AppleWebKit/537.36 (KHTML, like Gecko) Chrome/87.0.4280.88 Safari/537.36" etag="yM1Wb1l0lmoLAE_DflUh" version="14.5.8" type="github">
  <diagram id="kENqUxoY8oStFW74UGWh" name="Page-1">
    <mxGraphModel dx="723" dy="375" grid="1" gridSize="10" guides="1" tooltips="1" connect="1" arrows="1" fold="1" page="1" pageScale="1" pageWidth="827" pageHeight="1169" math="0" shadow="0">
      <root>
        <mxCell id="0" />
        <mxCell id="1" parent="0" />
        <mxCell id="1x4jpnriMCWxbVYfgML8-7" value="&lt;font style=&quot;font-size: 24px&quot;&gt;MapReduce（任务调度/执行系统）&lt;br&gt;&lt;br&gt;&lt;br&gt;&lt;/font&gt;" style="shape=partialRectangle;whiteSpace=wrap;html=1;bottom=0;right=0;fillColor=#dae8fc;strokeColor=#6c8ebf;" vertex="1" parent="1">
          <mxGeometry x="130" y="310" width="560" height="140" as="geometry" />
        </mxCell>
        <mxCell id="1x4jpnriMCWxbVYfgML8-9" value="&lt;font style=&quot;font-size: 24px&quot;&gt;（数据流处理/管道 APIs）&lt;/font&gt;" style="shape=partialRectangle;whiteSpace=wrap;html=1;top=0;left=0;fillColor=#dae8fc;strokeColor=#6c8ebf;" vertex="1" parent="1">
          <mxGeometry x="130" y="386" width="330" height="64" as="geometry" />
        </mxCell>
        <mxCell id="1x4jpnriMCWxbVYfgML8-14" value="&lt;font style=&quot;font-size: 24px&quot;&gt;分布式文件系统&lt;/font&gt;&lt;span style=&quot;font-size: 24px&quot;&gt;HDFS&lt;/span&gt;&lt;br&gt;&lt;font style=&quot;font-size: 24px&quot;&gt;（Hadoop Distributed File System）&lt;/font&gt;" style="rounded=0;whiteSpace=wrap;html=1;fillColor=#dae8fc;strokeColor=#6c8ebf;" vertex="1" parent="1">
          <mxGeometry x="130" y="455" width="560" height="90" as="geometry" />
        </mxCell>
        <mxCell id="1x4jpnriMCWxbVYfgML8-15" value="&lt;span style=&quot;font-size: 24px&quot;&gt;HBase&lt;br&gt;&lt;/span&gt;&lt;span style=&quot;font-size: 24px&quot;&gt;（键值对存储）&lt;/span&gt;" style="rounded=0;whiteSpace=wrap;html=1;fillColor=#dae8fc;strokeColor=#6c8ebf;" vertex="1" parent="1">
          <mxGeometry x="470" y="390" width="220" height="60" as="geometry" />
        </mxCell>
        <mxCell id="1x4jpnriMCWxbVYfgML8-16" value="&lt;font style=&quot;font-size: 24px&quot;&gt;Pig&lt;br&gt;（数据流）&lt;/font&gt;" style="rounded=0;whiteSpace=wrap;html=1;fillColor=#dae8fc;strokeColor=#6c8ebf;" vertex="1" parent="1">
          <mxGeometry x="130" y="245" width="180" height="60" as="geometry" />
        </mxCell>
        <mxCell id="1x4jpnriMCWxbVYfgML8-17" value="&lt;font style=&quot;font-size: 24px&quot;&gt;Hive（SQL）&lt;/font&gt;" style="rounded=0;whiteSpace=wrap;html=1;fillColor=#dae8fc;strokeColor=#6c8ebf;" vertex="1" parent="1">
          <mxGeometry x="320" y="245" width="180" height="60" as="geometry" />
        </mxCell>
        <mxCell id="1x4jpnriMCWxbVYfgML8-18" value="&lt;font style=&quot;font-size: 24px&quot;&gt;Sqoop&lt;/font&gt;" style="rounded=0;whiteSpace=wrap;html=1;fillColor=#dae8fc;strokeColor=#6c8ebf;" vertex="1" parent="1">
          <mxGeometry x="510" y="245" width="180" height="60" as="geometry" />
        </mxCell>
        <mxCell id="1x4jpnriMCWxbVYfgML8-20" value="&lt;span style=&quot;font-size: 24px&quot;&gt;ETL 工具&lt;/span&gt;" style="rounded=0;whiteSpace=wrap;html=1;dashed=1;fillColor=#dae8fc;strokeColor=#6c8ebf;" vertex="1" parent="1">
          <mxGeometry x="130" y="179" width="180" height="60" as="geometry" />
        </mxCell>
        <mxCell id="1x4jpnriMCWxbVYfgML8-21" value="&lt;span style=&quot;font-size: 24px&quot;&gt;BI 可视化&lt;/span&gt;" style="rounded=0;whiteSpace=wrap;html=1;dashed=1;fillColor=#dae8fc;strokeColor=#6c8ebf;" vertex="1" parent="1">
          <mxGeometry x="320" y="180" width="180" height="60" as="geometry" />
        </mxCell>
        <mxCell id="1x4jpnriMCWxbVYfgML8-22" value="&lt;span style=&quot;font-size: 24px&quot;&gt;RDBMS&lt;/span&gt;" style="rounded=0;whiteSpace=wrap;html=1;dashed=1;fillColor=#dae8fc;strokeColor=#6c8ebf;" vertex="1" parent="1">
          <mxGeometry x="510" y="180" width="180" height="60" as="geometry" />
        </mxCell>
        <mxCell id="1x4jpnriMCWxbVYfgML8-24" value="&lt;font style=&quot;font-size: 24px&quot;&gt;YARN&lt;/font&gt;&lt;font style=&quot;font-size: 24px&quot;&gt;（协调）&lt;/font&gt;" style="rounded=0;whiteSpace=wrap;html=1;rotation=-90;fillColor=#dae8fc;strokeColor=#6c8ebf;" vertex="1" parent="1">
          <mxGeometry x="-61" y="366" width="300" height="60" as="geometry" />
        </mxCell>
        <mxCell id="1x4jpnriMCWxbVYfgML8-25" value="" style="endArrow=none;html=1;exitX=0.998;exitY=0.089;exitDx=0;exitDy=0;exitPerimeter=0;entryX=1;entryY=0.584;entryDx=0;entryDy=0;entryPerimeter=0;fillColor=#dae8fc;strokeColor=#6c8ebf;" edge="1" parent="1">
          <mxGeometry width="50" height="50" relative="1" as="geometry">
            <mxPoint x="459.34000000000015" y="386.6959999999999" as="sourcePoint" />
            <mxPoint x="690" y="386.76" as="targetPoint" />
          </mxGeometry>
        </mxCell>
        <mxCell id="1x4jpnriMCWxbVYfgML8-26" value="" style="endArrow=none;html=1;entryX=0;entryY=0;entryDx=0;entryDy=0;exitX=0;exitY=1;exitDx=0;exitDy=0;fillColor=#dae8fc;strokeColor=#6c8ebf;" edge="1" parent="1" source="1x4jpnriMCWxbVYfgML8-9" target="1x4jpnriMCWxbVYfgML8-9">
          <mxGeometry width="50" height="50" relative="1" as="geometry">
            <mxPoint x="400" y="440" as="sourcePoint" />
            <mxPoint x="450" y="390" as="targetPoint" />
          </mxGeometry>
        </mxCell>
        <mxCell id="1x4jpnriMCWxbVYfgML8-27" value="" style="endArrow=none;html=1;entryX=1;entryY=0;entryDx=0;entryDy=0;fillColor=#dae8fc;strokeColor=#6c8ebf;" edge="1" parent="1" target="1x4jpnriMCWxbVYfgML8-7">
          <mxGeometry width="50" height="50" relative="1" as="geometry">
            <mxPoint x="690" y="390" as="sourcePoint" />
            <mxPoint x="450" y="390" as="targetPoint" />
            <Array as="points">
              <mxPoint x="690" y="360" />
            </Array>
          </mxGeometry>
        </mxCell>
      </root>
    </mxGraphModel>
  </diagram>
</mxfile>
